<?xml version="1.0" encoding="UTF-8" standalone="no"?>
<svg
   xmlns:dc="http://purl.org/dc/elements/1.1/"
   xmlns:cc="http://creativecommons.org/ns#"
   xmlns:rdf="http://www.w3.org/1999/02/22-rdf-syntax-ns#"
   xmlns:svg="http://www.w3.org/2000/svg"
   xmlns="http://www.w3.org/2000/svg"
   xmlns:sodipodi="http://sodipodi.sourceforge.net/DTD/sodipodi-0.dtd"
   xmlns:inkscape="http://www.inkscape.org/namespaces/inkscape"
   width="48in"
   height="15in"
   version="1.1"
   id="svg125"
   sodipodi:docname="IDD Table.svg"
   inkscape:version="0.92.4 (5da689c313, 2019-01-14)">
  <metadata
     id="metadata129">
    <rdf:RDF>
      <cc:Work
         rdf:about="">
        <dc:format>image/svg+xml</dc:format>
        <dc:type
           rdf:resource="http://purl.org/dc/dcmitype/StillImage" />
        <dc:title></dc:title>
      </cc:Work>
    </rdf:RDF>
  </metadata>
  <sodipodi:namedview
     pagecolor="#ffffff"
     bordercolor="#666666"
     borderopacity="1"
     objecttolerance="10"
     gridtolerance="10"
     guidetolerance="10"
     inkscape:pageopacity="0"
     inkscape:pageshadow="2"
     inkscape:window-width="1920"
     inkscape:window-height="1001"
     id="namedview127"
     showgrid="false"
     units="in"
     inkscape:zoom="0.25449099"
     inkscape:cx="2644.8176"
     inkscape:cy="778.15524"
     inkscape:window-x="-9"
     inkscape:window-y="-9"
     inkscape:window-maximized="1"
     inkscape:current-layer="g123" />
  <desc
     id="desc10">C:\Users\johnw\OneDrive\Documents\SW Designs\IDD Table.DXF - scale = 25.400000, origin = (0.000000, 0.000000), method = file</desc>
  <defs
     id="defs25">
    <marker
       id="DistanceX"
       orient="auto"
       refX="0"
       refY="0"
       style="overflow:visible">
      <path
         d="M 3,-3 -3,3 M 0,-5 V 5"
         style="stroke:#000000;stroke-width:0.5"
         id="path12"
         inkscape:connector-curvature="0" />
    </marker>
    <pattern
       height="8"
       id="Hatch"
       patternUnits="userSpaceOnUse"
       width="8"
       x="0"
       y="0">
      <path
         d="M8 4 l-4,4"
         linecap="square"
         stroke="#000000"
         stroke-width="0.25"
         id="path15" />
      <path
         d="M6 2 l-4,4"
         linecap="square"
         stroke="#000000"
         stroke-width="0.25"
         id="path17" />
      <path
         d="M4 0 l-4,4"
         linecap="square"
         stroke="#000000"
         stroke-width="0.25"
         id="path19" />
    </pattern>
    <symbol
       id="*Model_Space" />
    <symbol
       id="*Paper_Space" />
    <symbol
       id="*Paper_Space0" />
    <marker
       style="overflow:visible"
       refY="0.0"
       refX="0.0"
       orient="auto"
       id="DistanceX-2">
      <path
         id="path133"
         style="stroke:#000000; stroke-width:0.5"
         d="M 3,-3 L -3,3 M 0,-5 L  0,5" />
    </marker>
    <pattern
       y="0"
       x="0"
       width="8"
       patternUnits="userSpaceOnUse"
       id="Hatch-5"
       height="8">
      <path
         id="path136"
         stroke-width="0.25"
         stroke="#000000"
         linecap="square"
         d="M8 4 l-4,4" />
      <path
         id="path138"
         stroke-width="0.25"
         stroke="#000000"
         linecap="square"
         d="M6 2 l-4,4" />
      <path
         id="path140"
         stroke-width="0.25"
         stroke="#000000"
         linecap="square"
         d="M4 0 l-4,4" />
    </pattern>
    <symbol
       id="*Model_Space-5" />
    <symbol
       id="*Paper_Space-4" />
    <symbol
       id="*Paper_Space0-6" />
    <marker
       style="overflow:visible"
       refY="0.0"
       refX="0.0"
       orient="auto"
       id="DistanceX-7">
      <path
         id="path240"
         style="stroke:#000000; stroke-width:0.5"
         d="M 3,-3 L -3,3 M 0,-5 L  0,5" />
    </marker>
    <pattern
       y="0"
       x="0"
       width="8"
       patternUnits="userSpaceOnUse"
       id="Hatch-6"
       height="8">
      <path
         id="path243"
         stroke-width="0.25"
         stroke="#000000"
         linecap="square"
         d="M8 4 l-4,4" />
      <path
         id="path245"
         stroke-width="0.25"
         stroke="#000000"
         linecap="square"
         d="M6 2 l-4,4" />
      <path
         id="path247"
         stroke-width="0.25"
         stroke="#000000"
         linecap="square"
         d="M4 0 l-4,4" />
    </pattern>
    <symbol
       id="*Model_Space-9" />
    <symbol
       id="*Paper_Space-8" />
    <symbol
       id="*Paper_Space0-2" />
    <marker
       style="overflow:visible"
       refY="0.0"
       refX="0.0"
       orient="auto"
       id="DistanceX-8">
      <path
         id="path1519"
         style="stroke:#000000; stroke-width:0.5"
         d="M 3,-3 L -3,3 M 0,-5 L  0,5" />
    </marker>
    <pattern
       y="0"
       x="0"
       width="8"
       patternUnits="userSpaceOnUse"
       id="Hatch-3"
       height="8">
      <path
         id="path1522"
         stroke-width="0.25"
         stroke="#000000"
         linecap="square"
         d="M8 4 l-4,4" />
      <path
         id="path1524"
         stroke-width="0.25"
         stroke="#000000"
         linecap="square"
         d="M6 2 l-4,4" />
      <path
         id="path1526"
         stroke-width="0.25"
         stroke="#000000"
         linecap="square"
         d="M4 0 l-4,4" />
    </pattern>
    <symbol
       id="*Model_Space-1" />
    <symbol
       id="*Paper_Space-6" />
    <symbol
       id="*Paper_Space0-0" />
    <marker
       style="overflow:visible"
       refY="0.0"
       refX="0.0"
       orient="auto"
       id="DistanceX-0">
      <path
         id="path1707"
         style="stroke:#000000; stroke-width:0.5"
         d="M 3,-3 L -3,3 M 0,-5 L  0,5" />
    </marker>
    <pattern
       y="0"
       x="0"
       width="8"
       patternUnits="userSpaceOnUse"
       id="Hatch-9"
       height="8">
      <path
         id="path1710"
         stroke-width="0.25"
         stroke="#000000"
         linecap="square"
         d="M8 4 l-4,4" />
      <path
         id="path1712"
         stroke-width="0.25"
         stroke="#000000"
         linecap="square"
         d="M6 2 l-4,4" />
      <path
         id="path1714"
         stroke-width="0.25"
         stroke="#000000"
         linecap="square"
         d="M4 0 l-4,4" />
    </pattern>
    <symbol
       id="*Model_Space-2" />
    <symbol
       id="*Paper_Space-7" />
    <symbol
       id="*Paper_Space0-9" />
  </defs>
  <g
     inkscape:groupmode="layer"
     inkscape:label="0"
     id="g123"
     transform="translate(0,317.4803)">
    <g
       id="g1620"
       inkscape:label="0"
       transform="translate(2294.9415,-35.294178)">
      <path
         id="path1534"
         style="fill:none;stroke:#000000;stroke-width:0.60000002;stroke-linecap:round"
         d="m 266.91468,-221.48031 c -35.18291,0 -70.37909,-4.21234 -105.56046,1.84471 -35.18138,6.05704 -68.375585,21.65134 -95.859039,45.72353 -27.483455,24.0722 -47.069099,55.77587 -57.617275,89.711042 C -2.670269,-50.265852 0,-14.162765 0,21.020147 0,161.7518 0,302.48345 0,443.2151 c 0,140.73165 0,281.4633 0,422.19495 0,35.18291 -4.570393,70.63987 3.887818,105.5258 8.458211,34.88595 25.070725,67.37575 50.593518,93.57125 25.522794,26.1954 57.723164,43.5965 92.355434,52.9091 34.63227,9.3126 70.28583,5.1035 105.46874,5.1035 562.9266,0 1125.85319,0 1688.77979,0 35.1829,0 70.3791,4.2123 105.5605,-1.8447 35.1814,-6.0571 68.3756,-21.6514 95.859,-45.7236 27.4835,-24.0722 47.0691,-55.7758 57.6173,-89.711 10.5482,-33.93518 7.8779,-70.03827 7.8779,-105.22118 0,-140.73165 0,-281.4633 0,-422.19495 0,-140.73165 0,-281.4633 0,-422.19495 0,-35.182913 4.5704,-70.639867 -3.8878,-105.525798 -8.4582,-34.885932 -25.0707,-67.375762 -50.5935,-93.571212 -25.5228,-26.19546 -57.7232,-43.59651 -92.3555,-52.90912 -34.6322,-9.3126 -70.2858,-5.1035 -105.4687,-5.1035 -562.9266,0 -1125.85322,0 -1688.77982,0 z"
         inkscape:connector-curvature="0" />
      <path
         id="path1536"
         style="fill:none;stroke:#000000;stroke-width:0.60000002;stroke-linecap:round"
         d="M 99.019805,853.79425 86.822213,865.99184"
         inkscape:connector-curvature="0" />
      <path
         id="path1538"
         style="fill:none;stroke:#000000;stroke-width:0.60000002;stroke-linecap:round"
         d="M 111.2174,865.99184 99.019805,853.79425"
         inkscape:connector-curvature="0" />
      <path
         id="path1540"
         style="fill:none;stroke:#000000;stroke-width:0.60000002;stroke-linecap:round"
         d="M 256.52784,1011.3023 C 208.09103,962.86547 159.65421,914.42866 111.2174,865.99184"
         inkscape:connector-curvature="0" />
      <path
         id="path1542"
         style="fill:none;stroke:#000000;stroke-width:0.60000002;stroke-linecap:round"
         d="m 268.72543,1023.4999 -12.19759,-12.1976"
         inkscape:connector-curvature="0" />
      <path
         id="path1544"
         style="fill:none;stroke:#000000;stroke-width:0.60000002;stroke-linecap:round"
         d="m 244.39182,1047.8335 24.33361,-24.3336"
         inkscape:connector-curvature="0" />
      <path
         id="path1546"
         style="fill:none;stroke:#000000;stroke-width:0.60000002;stroke-linecap:round"
         d="m 232.13266,1060.0927 c 4.08638,-4.0864 8.17277,-8.1728 12.25916,-12.2592"
         inkscape:connector-curvature="0" />
      <path
         id="path1548"
         style="fill:none;stroke:#000000;stroke-width:0.60000002;stroke-linecap:round"
         d="m 219.93506,1072.2902 12.1976,-12.1975"
         inkscape:connector-curvature="0" />
      <path
         id="path1550"
         style="fill:none;stroke:#000000;stroke-width:0.60000002;stroke-linecap:round"
         d="M 50.229437,902.58462 219.93506,1072.2902"
         inkscape:connector-curvature="0" />
      <path
         id="path1552"
         style="fill:none;stroke:#000000;stroke-width:0.60000002;stroke-linecap:round"
         d="M 62.427029,890.38703 50.229437,902.58462"
         inkscape:connector-curvature="0" />
      <path
         id="path1554"
         style="fill:none;stroke:#000000;stroke-width:0.60000002;stroke-linecap:round"
         d="m 86.822213,865.99184 c -8.131728,8.13173 -16.263456,16.26346 -24.395184,24.39519"
         inkscape:connector-curvature="0" />
      <path
         id="path1556"
         style="fill:none;stroke:#000000;stroke-width:0.60000002;stroke-linecap:round"
         d="m 2096.7826,865.99184 c -48.4368,48.43682 -96.8736,96.87363 -145.3104,145.31046"
         inkscape:connector-curvature="0" />
      <path
         id="path1558"
         style="fill:none;stroke:#000000;stroke-width:0.60000002;stroke-linecap:round"
         d="m 2096.7826,865.99184 12.1976,-12.19759"
         inkscape:connector-curvature="0" />
      <path
         id="path1560"
         style="fill:none;stroke:#000000;stroke-width:0.60000002;stroke-linecap:round"
         d="m 2108.9802,853.79425 12.1976,12.19759"
         inkscape:connector-curvature="0" />
      <path
         id="path1562"
         style="fill:none;stroke:#000000;stroke-width:0.60000002;stroke-linecap:round"
         d="m 2145.573,890.38703 c -8.1318,-8.13173 -16.2635,-16.26346 -24.3952,-24.39519"
         inkscape:connector-curvature="0" />
      <path
         id="path1564"
         style="fill:none;stroke:#000000;stroke-width:0.60000002;stroke-linecap:round"
         d="m 2145.573,890.38703 12.1976,12.19759"
         inkscape:connector-curvature="0" />
      <path
         id="path1566"
         style="fill:none;stroke:#000000;stroke-width:0.60000002;stroke-linecap:round"
         d="M 2157.7706,902.58462 1988.0649,1072.2902"
         inkscape:connector-curvature="0" />
      <path
         id="path1568"
         style="fill:none;stroke:#000000;stroke-width:0.60000002;stroke-linecap:round"
         d="m 1988.0649,1072.2902 -12.1976,-12.1975"
         inkscape:connector-curvature="0" />
      <path
         id="path1570"
         style="fill:none;stroke:#000000;stroke-width:0.60000002;stroke-linecap:round"
         d="m 1951.4722,1035.6975 c 8.1317,8.1317 16.2634,16.2634 24.3951,24.3952"
         inkscape:connector-curvature="0" />
      <path
         id="path1572"
         style="fill:none;stroke:#000000;stroke-width:0.60000002;stroke-linecap:round"
         d="m 1951.4722,1035.6975 -12.1976,-12.1976"
         inkscape:connector-curvature="0" />
      <path
         id="path1574"
         style="fill:none;stroke:#000000;stroke-width:0.60000002;stroke-linecap:round"
         d="m 1939.2746,1023.4999 12.1976,-12.1976"
         inkscape:connector-curvature="0" />
      <path
         id="path1576"
         style="fill:none;stroke:#000000;stroke-width:0.60000002;stroke-linecap:round"
         d="m 2145.573,-13.742842 c -48.4368,-48.436815 -96.8737,-96.873628 -145.3105,-145.310448"
         inkscape:connector-curvature="0" />
      <path
         id="path1578"
         style="fill:none;stroke:#000000;stroke-width:0.60000002;stroke-linecap:round"
         d="m 2145.573,-13.742842 12.1976,12.197592"
         inkscape:connector-curvature="0" />
      <path
         id="path1580"
         style="fill:none;stroke:#000000;stroke-width:0.60000002;stroke-linecap:round"
         d="M 2157.7706,-1.54525 2145.573,10.652342"
         inkscape:connector-curvature="0" />
      <path
         id="path1582"
         style="fill:none;stroke:#000000;stroke-width:0.60000002;stroke-linecap:round"
         d="m 2121.1778,35.047526 c 8.1317,-8.131728 16.2634,-16.263456 24.3952,-24.395184"
         inkscape:connector-curvature="0" />
      <path
         id="path1584"
         style="fill:none;stroke:#000000;stroke-width:0.60000002;stroke-linecap:round"
         d="m 2121.1778,35.047526 -12.1976,12.197592"
         inkscape:connector-curvature="0" />
      <path
         id="path1586"
         style="fill:none;stroke:#000000;stroke-width:0.60000002;stroke-linecap:round"
         d="M 2108.9802,47.245118 2096.7826,35.047526"
         inkscape:connector-curvature="0" />
      <path
         id="path1588"
         style="fill:none;stroke:#000000;stroke-width:0.60000002;stroke-linecap:round"
         d="m 1951.4722,-110.26292 c 48.4368,48.436817 96.8736,96.873631 145.3104,145.310446"
         inkscape:connector-curvature="0" />
      <path
         id="path1590"
         style="fill:none;stroke:#000000;stroke-width:0.60000002;stroke-linecap:round"
         d="m 1951.4722,-110.26292 -12.1976,-12.19759"
         inkscape:connector-curvature="0" />
      <path
         id="path1592"
         style="fill:none;stroke:#000000;stroke-width:0.60000002;stroke-linecap:round"
         d="m 1939.2746,-122.46051 48.7903,-48.79037"
         inkscape:connector-curvature="0" />
      <path
         id="path1594"
         style="fill:none;stroke:#000000;stroke-width:0.60000002;stroke-linecap:round"
         d="m 1988.0649,-171.25088 12.1976,12.19759"
         inkscape:connector-curvature="0" />
      <path
         id="path1596"
         style="fill:none;stroke:#000000;stroke-width:0.60000002;stroke-linecap:round"
         d="m 111.2174,35.047526 c 48.43681,-48.436815 96.87363,-96.873629 145.31044,-145.310446"
         inkscape:connector-curvature="0" />
      <path
         id="path1598"
         style="fill:none;stroke:#000000;stroke-width:0.60000002;stroke-linecap:round"
         d="M 111.2174,35.047526 99.019805,47.245118"
         inkscape:connector-curvature="0" />
      <path
         id="path1600"
         style="fill:none;stroke:#000000;stroke-width:0.60000002;stroke-linecap:round"
         d="M 99.019805,47.245118 86.822213,35.047526"
         inkscape:connector-curvature="0" />
      <path
         id="path1602"
         style="fill:none;stroke:#000000;stroke-width:0.60000002;stroke-linecap:round"
         d="m 62.427029,10.652342 c 8.131728,8.131728 16.263456,16.263456 24.395184,24.395184"
         inkscape:connector-curvature="0" />
      <path
         id="path1604"
         style="fill:none;stroke:#000000;stroke-width:0.60000002;stroke-linecap:round"
         d="M 62.427029,10.652342 50.229437,-1.54525"
         inkscape:connector-curvature="0" />
      <path
         id="path1606"
         style="fill:none;stroke:#000000;stroke-width:0.60000002;stroke-linecap:round"
         d="M 50.229437,-1.54525 135.12485,-86.440666"
         inkscape:connector-curvature="0" />
      <path
         id="path1608"
         style="fill:none;stroke:#000000;stroke-width:0.60000002;stroke-linecap:round"
         d="m 207.73747,-159.05329 c -24.2042,24.20421 -48.40841,48.40842 -72.61262,72.612624"
         inkscape:connector-curvature="0" />
      <path
         id="path1610"
         style="fill:none;stroke:#000000;stroke-width:0.60000002;stroke-linecap:round"
         d="m 207.73747,-159.05329 12.19759,-12.19759"
         inkscape:connector-curvature="0" />
      <path
         id="path1612"
         style="fill:none;stroke:#000000;stroke-width:0.60000002;stroke-linecap:round"
         d="m 219.93506,-171.25088 12.1976,12.19759"
         inkscape:connector-curvature="0" />
      <path
         id="path1614"
         style="fill:none;stroke:#000000;stroke-width:0.60000002;stroke-linecap:round"
         d="m 256.52784,-134.6581 c -8.13173,-8.13173 -16.26346,-16.26346 -24.39518,-24.39519"
         inkscape:connector-curvature="0" />
      <path
         id="path1616"
         style="fill:none;stroke:#000000;stroke-width:0.60000002;stroke-linecap:round"
         d="m 256.52784,-134.6581 12.19759,12.19759"
         inkscape:connector-curvature="0" />
      <path
         id="path1618"
         style="fill:none;stroke:#000000;stroke-width:0.60000002;stroke-linecap:round"
         d="m 268.72543,-122.46051 -12.19759,12.19759"
         inkscape:connector-curvature="0" />
    </g>
    <g
       id="g1738"
       inkscape:label="0"
       transform="translate(39.458925,-39.223599)">
      <path
         id="path1722"
         style="fill:none;stroke:#000000;stroke-width:0.60000002;stroke-linecap:round"
         d="m 2121.8142,0.470004 c -7.1759,7.175836 -13.0833,16.509117 -22.4598,20.391296 -9.3766,3.882178 -19.5868,-2.828775 -26.7626,-10.004611 -14.3517,-14.351673 -28.7034,-28.703346 -43.0551,-43.055018 -14.3516,-14.351673 -28.7033,-28.703345 -43.055,-43.055018 -7.1758,-7.175836 -16.4082,-13.068906 -20.5808,-22.330874 -4.1725,-9.261969 2.1542,-19.715709 9.33,-26.891539 7.1759,-7.17584 13.0833,-16.50912 22.4599,-20.3913 9.3766,-3.88218 19.5867,2.82878 26.7626,10.00461 14.3516,14.35167 28.7033,28.70335 43.055,43.055019 14.3517,14.351673 28.7033,28.703345 43.055,43.055018 7.1758,7.175836 16.4082,13.068906 20.5808,22.330874 4.1726,9.261968 -2.1542,19.715707 -9.33,26.891543 z"
         inkscape:connector-curvature="0" />
      <path
         id="path1724"
         style="fill:none;stroke:#000000;stroke-width:0.60000002;stroke-linecap:round"
         d="m 199.30756,871.25729 c 10.75014,25.95313 34.9713,47.32744 62.1689,55.58044 27.19759,8.25301 56.04826,3.68195 84.13972,3.68195 56.18291,0 112.36582,0 168.54873,0 112.36583,0 224.73165,0 337.09748,0 224.73161,0 449.46331,0 674.19491,0 112.3659,0 224.7317,0 337.0975,0 28.0915,0 56.9569,4.55368 84.1342,-3.73229 27.1774,-8.28596 51.3647,-29.71585 62.0687,-55.68813 10.704,-25.97228 7.2423,-55.47614 7.2423,-83.5676 0,-28.09145 0,-56.18291 0,-84.27437 0,-112.36582 0,-224.73165 0,-337.09747 0,-56.18291 0,-112.36583 0,-168.54874 0,-28.09146 0,-56.18291 0,-84.27437 0,-28.091454 3.4426,-57.601513 -7.3076,-83.554634 -10.7501,-25.953122 -34.9713,-47.327431 -62.1689,-55.580437 -27.1976,-8.253005 -56.0482,-3.681954 -84.1397,-3.681954 -56.1829,0 -112.3658,0 -168.5487,0 -112.3658,0 -224.7317,0 -337.0975,0 -224.7316,0 -449.46329,0 -674.19494,0 -112.36583,0 -224.73165,0 -337.09748,0 -28.09145,0 -56.95687,-4.553672 -84.13422,3.732291 -27.17734,8.285963 -51.36468,29.715858 -62.06869,55.688136 C 188.53825,55.912391 192,85.41625 192,113.50771 c 0,28.09145 0,56.18291 0,84.27437 0,112.36582 0,224.73165 0,337.09747 0,56.18291 0,112.36583 0,168.54874 0,28.09145 0,56.18291 0,84.27437 0,28.09145 -3.44257,57.60151 7.30756,83.55463 z"
         inkscape:connector-curvature="0" />
      <path
         id="path1726"
         style="fill:none;stroke:#000000;stroke-width:0.60000002;stroke-linecap:round"
         d="M 118.52478,1107.9046 C 53.515235,1080.9767 1.668214,1011.6661 0.080962,941.28796 -1.50629,870.9098 0,800.55568 0,730.18985 0,589.45821 0,448.72655 0,307.9949 0,237.62908 0,167.26325 0,96.897428 0,26.531603 -11.898796,-47.806871 18.61755,-111.95774 c 30.516346,-64.15087 102.05393,-109.50983 172.41985,-109.52252 70.36593,-0.0127 140.73165,-5e-5 211.09748,-5e-5 281.4633,0 562.9266,0 844.38992,0 140.7316,0 281.4633,0 422.1949,0 70.3659,0 140.7317,0 211.0975,0 70.3658,0 144.6485,-12.31271 209.658,14.61513 65.0096,26.92783 116.8566,96.23843 118.4438,166.61659 1.5873,70.37816 0.081,140.73228 0.081,211.0981 0,140.73165 0,281.46331 0,422.19496 0,70.36582 0,140.73165 0,211.09747 0,70.36583 11.8988,144.7043 -18.6175,208.85516 -30.5164,64.1509 -102.054,109.5098 -172.4199,109.5225 -70.3659,0.013 -140.7317,10e-5 -211.0975,10e-5 -281.4633,0 -562.9266,0 -844.38988,0 -140.73165,0 -281.4633,0 -422.19495,0 -70.36583,0 -140.73165,0 -211.09748,0 -70.36582,0 -144.64846,12.3127 -209.65801,-14.6151 z"
         inkscape:connector-curvature="0" />
      <path
         id="path1728"
         style="fill:none;stroke:#000000;stroke-width:0.60000002;stroke-linecap:round"
         d="m 76.614413,-11.168291 c -7.767069,-18.751364 17.177149,-33.939084 31.528827,-48.290757 14.35167,-14.351673 28.70334,-28.703345 43.05501,-43.055022 14.35167,-14.35167 25.33487,-33.76121 43.85776,-42.10918 18.5229,-8.34798 39.51738,13.03442 47.28445,31.78578 7.76707,18.751365 -17.17715,33.939085 -31.52883,48.290758 -14.35167,14.351672 -28.70334,28.703345 -43.05501,43.055018 -14.35168,14.351672 -25.33487,33.761218 -43.85776,42.109189 -18.5229,8.347971 -39.517377,-13.034422 -47.284447,-31.785786 z"
         inkscape:connector-curvature="0" />
      <path
         id="path1730"
         style="fill:none;stroke:#000000;stroke-width:0.60000002;stroke-linecap:round"
         d="m 1975.2309,1025.5151 c 7.1759,7.1759 13.0833,16.5092 22.4599,20.3913 9.3766,3.8822 19.5867,-2.8287 26.7626,-10.0046 14.3516,-14.3517 28.7033,-28.7033 43.055,-43.055 14.3517,-14.35167 28.7033,-28.70334 43.055,-43.05502 7.1758,-7.17583 16.4082,-13.0689 20.5808,-22.33087 4.1726,-9.26197 -2.1542,-19.71571 -9.33,-26.89154 -7.1759,-7.17584 -13.0833,-16.50912 -22.4598,-20.3913 -9.3766,-3.88218 -19.5868,2.82877 -26.7626,10.00461 -14.3517,14.35167 -28.7034,28.70335 -43.0551,43.05502 -14.3516,14.35167 -28.7033,28.70335 -43.055,43.05502 -7.1758,7.17583 -16.4082,13.0689 -20.5808,22.33087 -4.1725,9.26201 2.1542,19.71571 9.33,26.89151 z"
         inkscape:connector-curvature="0" />
      <path
         id="path1732"
         style="fill:none;stroke:#000000;stroke-width:0.60000002;stroke-linecap:round"
         d="m 232.76905,1025.5151 c -7.17583,7.1759 -13.08324,16.5092 -22.45982,20.3913 -9.37659,3.8822 -19.58676,-2.8287 -26.76259,-10.0046 -14.35168,-14.3517 -28.70335,-28.7033 -43.05502,-43.055 -14.35168,-14.35167 -28.70335,-28.70334 -43.05502,-43.05502 -7.175836,-7.17583 -16.408199,-13.0689 -20.580785,-22.33087 -4.172585,-9.26197 2.154166,-19.71571 9.330002,-26.89154 7.175836,-7.17584 13.083237,-16.50912 22.459823,-20.3913 9.37659,-3.88218 19.58676,2.82877 26.76259,10.00461 14.35168,14.35167 28.70335,28.70335 43.05502,43.05502 14.35167,14.35167 28.70335,28.70335 43.05502,43.05502 7.17584,7.17583 16.4082,13.0689 20.58078,22.33087 4.17259,9.26201 -2.15416,19.71571 -9.33,26.89151 z"
         inkscape:connector-curvature="0" />
      <path
         id="path1734"
         style="fill:none;stroke:#000000;stroke-width:0.60000002;stroke-linecap:round"
         d="m 786.72867,306.51968 c 168.73165,0 337.46333,0 506.19493,0 42.1829,0 84.3658,0 126.5488,0 21.0914,0 44.9046,1.23536 58.3528,18.44917 13.4483,17.2138 10.1748,40.28552 10.1748,61.37698 0,42.18291 0,84.36583 0,126.54874 0,21.09146 3.678,44.0144 -9.0579,61.68782 -12.736,17.67341 -36.5793,19.93729 -57.6708,19.93729 -168.7316,0 -337.4633,0 -506.19492,0 -42.18292,0 -84.36583,0 -126.54874,0 -21.09146,0 -44.90464,-1.23536 -58.35287,-18.44916 C 716.72654,558.85672 720,535.78499 720,514.69354 c 0,-42.18291 0,-84.36583 0,-126.54874 0,-21.09146 -3.67801,-44.0144 9.05793,-61.68782 12.73594,-17.67341 36.57928,-19.9373 57.67074,-19.9373 z"
         inkscape:connector-curvature="0" />
      <path
         id="path1736"
         style="fill:none;stroke:#000000;stroke-width:0.60000002;stroke-linecap:round"
         d="m 291.65378,804.88849 c 9.39325,22.6773 37.9714,29.63119 62.51712,29.63119 24.54573,0 49.09146,0 73.63719,0 49.09145,0 98.18291,0 147.27437,0 98.18291,0 196.36582,0 294.54874,0 196.3658,0 392.7316,0 589.0975,0 98.1829,0 196.3658,0 294.5487,0 24.5457,0 49.0915,0 73.6372,0 24.5457,0 51.3525,5.89644 72.2217,-8.40678 20.8691,-14.30322 20.8637,-43.0415 20.8637,-67.58723 0,-24.54572 0,-49.09145 0,-73.63718 0,-98.18291 0,-196.36582 0,-294.54874 0,-49.09145 0,-98.18291 0,-147.27437 0,-24.54573 0,-49.09145 0,-73.63718 0,-24.54573 5.7395,-50.60002 -3.6538,-73.27732 -9.3932,-22.677296 -37.9714,-29.631195 -62.5171,-29.631195 -24.5457,0 -49.0915,0 -73.6372,0 -49.0914,0 -98.1829,0 -147.2744,0 -98.1829,0 -196.3658,0 -294.5487,0 -196.3658,0 -392.73165,0 -589.09747,0 -98.18291,0 -196.36583,0 -294.54874,0 -24.54573,0 -49.09146,0 -73.63718,0 -24.54573,0 -51.35256,-5.896431 -72.22168,8.406786 C 287.9946,89.229688 288,117.96797 288,142.5137 c 0,24.54572 0,49.09145 0,73.63718 0,98.18291 0,196.36583 0,294.54874 0,49.09145 0,98.18291 0,147.27437 0,24.54573 0,49.09145 0,73.63718 0,24.54573 -5.73946,50.60002 3.65378,73.27732 z"
         inkscape:connector-curvature="0" />
    </g>
  </g>
</svg>
